<?xml version="1.0" encoding="utf-8"?>
<!-- Generator: Adobe Illustrator 25.4.1, SVG Export Plug-In . SVG Version: 6.00 Build 0)  -->
<svg version="1.1" id="レイヤー_1" xmlns="http://www.w3.org/2000/svg" xmlns:xlink="http://www.w3.org/1999/xlink" x="0px"
	 y="0px" viewBox="0 0 1280 1280" style="enable-background:new 0 0 1280 1280;" xml:space="preserve">
<style type="text/css">
	.st0{fill:#FF0D0D;}
	.st1{fill:#FF0606;}
</style>
<path id="logo" class="st0" d="M711.2,626.6l0.3-0.1c0,4.3-4.5,10.8-4.5,15V666c0,5.4,1.9,9.8,4.5,14.5c1.1,1.9,1.9,5.1,2.4,7.1
	c0.7,2.5,4.8,2.5,5.1,4.9c0.6,5.3,12.9,7.9,16.5,9.5c5.4,2.4,12.8,2.5,19,2.5h23c4.6,0,11.4-1.6,16-1c4.5,0.6,12.2-3.5,17-3.5
	c4.9,0,12.3-2,17-3c5.6-1.1,11.2-1.5,16.9-1.5c9,0,18.9-1.1,27.6-3.5c14-3.9,25.6-6.6,40-7.5c5.6-0.3,18.1-3.3,23.5-4.5
	c5.1-1.1,10.5-1.1,15.5-3c11.9-4.5,19.5-4,31.5-8c4.4-1.5,10.2-1.9,14.5-3.5c2.7-1,6.2-2.8,9-3c5.3-0.4,6.5,0.2,11.5-1.5
	c3.4-1.2,8.7-0.7,12-2.5c4.8-2.6,8.2-2.2,13.5-2.5c2.7-0.2,8.7,1.3,7.5-3c-0.8-2.7-11.4-5.5-14-6.5c-4.8-1.8-13.5-5.3-17.5-8.5
	c-4.9-3.9,11.9-8.3,14.5-8.5c11-5,4.8-5.5,15-11.5c4.4-2.6,18.7-23.1,22.5-26c5.6-4.2,5.2-11.2,10-16c4.4-4.4,11.4-15,14.5-20.5
	c2.1-3.8,8.1-9,13-9c13.5,0,17.1,14.4,17.5,26c5.5,12.7,4.7,23.9,8,34.5c3.8,12.5,7,27.2,7,40.5c0,6.8,3.5,13.4,5,20
	c1.1,4.8,2.2,9.7,2.5,14.7c0.3,4.4,1,7.2,1,11.8v0.1c0,2.4,0,4.7,1.5,6.7c0.7,0.9-2.6,2.9-5.8,0c-7.2-6.5-4.6-1.9-11.7-8.3
	c-1.8-1.7-11.2-12.2-13-14c-2-2-6.9-7.5-9.5-9c-4.7-2.7-9.1,1.8-15,3.5c-6.2,1.8-14.4,2.8-20.5,5.5c-10,4.4-20,5-30,10
	c-8.6,4.4-17.7,4.7-26.5,8.5c-4.2,1.8-11.6,3.4-16.1,4.4l-0.4,0.1c-5.2,1.1-11.8,4.8-17,5c-5.6,0.2-8.5,4-14,5
	c-8.6,1.6-15.7,5-24.5,5.4c-9.9,0.5-19.1,7.6-29,7.6c-3.8,0-9.9,3.1-13.5,4c-10.6,2.6-18.4,5.3-29.5,6c-10.6,0.6-20.2,5.6-30.5,7.5
	c-4.4,0.8-10.7,3-15,4c-8,1.8-14.7,4.5-23,4.5c-6.3,0-12.6,1-18.5,3.3c-9.2,3.6-17.4,3-27,5.2c-4.8,1.1-8.2,1.6-13,3
	c-4.9,1.5-10,3.5-15,4c-8.8,0.9-17.1,2.5-26,2.5c-7.6,0-18.9-2.5-26.5-2.5c-6.9,0-12.7-1.2-19-4c-4.2-1.8-8.9-2.1-11.5-6
	c-1.7-2.5-7.1-5.6-9.5-8c-2.2-2.2-3.4-5.7-5-8.5c-2.6-4.7-11-17.5-8.5-23c-1-5.5,0.6-12.8,2-19c1.6-6.8,4.1-10.1,8.1-16
	c1.9-2.9,2.6-7.1,4.9-9.5c1.8-1.8,5.7-4.5,7.8-5.9l0.2-0.1c4.5-3,5.9-7,9.5-11c1.8-2,5.9-4.9,8.5-6c4.5-2,7.4-7.2,11.5-9.5
	c4.1-2.3,8.4-3.2,12-6C696.3,629.8,704.3,628,711.2,626.6z"/>
<path id="sole" class="st1" d="M121,912.5c-6.4-12.1-2.5-21-2.5-37c7,0,9,4.5,16,4.5c6.4,0,13.2,4.5,18.5,4.5
	c13.2,0,18.5,14.1,31,18c9.5,3,14.2,10.7,23.6,13.9c10,3.4,62.3,12.4,71.9,17.1c13.5,0,12.5,0,42,3c23.5,0,96,5,119.5,5
	c19-1.2,38.2,0.1,57,2c38.7,3.9,76.7,1.8,114.5,4c52.6,3.1,106.7,0.5,159.5,0.5c51.5-2.5,103.8-2.5,155.5-2.5c18.3,0,37.7-2,56-2
	c20.7,0,43.3,3.6,63-2c10.4-3,21.2,0.5,32.5,0.5c14.8,0,26.1-2.8,40-5.9c6.4-1.4,32.8-11.4,38.6-5.7c1.7,1.7-5.3,15-6.1,17.6
	c-2.2,7.1-10.1,16-18,16c-18.9,0-24,7.5-54.5,5c-13,0.5-13.4,2.9-21.5,2.9c-12.8,0-24.6-2.7-36.5,0c-7.6,1.7-14.3,1.6-22,1.6
	c-12,0-27,2.1-38.6,2.6c-8.8,0.3-17.7,0-26.4,0h-30.4H866h-70c-34.4,0-67.7,2-102.1,2c-57.5,0-115.8-4.5-173.4-4.5H426
	c-37.3,0-67-6-104.5-6c-25.1,0-60-5.6-71.5-9.5c-14.2-4.8-32.9-1.8-46-8c-8.7-4.1-17.7-2.9-27-5.5c-10.5-3-10.5-2.5-33.5-6.5
	C130,935,123.6,917.3,121,912.5z"/>
</svg>
