<svg width="1280" height="1280" fill="none" xmlns="http://www.w3.org/2000/svg"><path d="m711.222 626.56.278-.06c0 4.279-4.5 10.801-4.5 15V666c0 5.404 1.896 9.812 4.5 14.5 1.079 1.943 1.883 5.09 2.444 7.056.713 2.495 4.789 2.539 5.056 4.944.588 5.291 12.939 7.917 16.5 9.5 5.436 2.416 12.807 2.5 19 2.5h23c4.622 0 11.447-1.569 16-1 4.468.558 12.18-3.5 17-3.5 4.892 0 12.3-2.039 17-3 5.597-1.145 11.237-1.5 16.944-1.5 9.026 0 18.889-1.109 27.556-3.5 13.965-3.852 25.578-6.626 40-7.5 5.565-.337 18.069-3.319 23.5-4.5 5.114-1.112 10.55-1.13 15.5-3 11.922-4.504 19.458-3.986 31.5-8 4.36-1.453 10.174-1.927 14.5-3.5 2.726-.991 6.22-2.794 9-3 5.31-.394 6.54.217 11.5-1.5 3.4-1.177 8.65-.699 12-2.5 4.76-2.561 8.19-2.188 13.5-2.5 2.72-.16 8.74 1.325 7.5-3-.78-2.72-11.4-5.502-14-6.5-4.79-1.841-13.48-5.286-17.5-8.5-4.88-3.903 11.89-8.347 14.5-8.5 11-5 4.83-5.52 15-11.5 4.45-2.616 18.69-23.14 22.5-26 5.59-4.191 5.22-11.217 10-16 4.37-4.366 11.45-15.009 14.5-20.5 2.09-3.769 8.13-9 13-9 13.51 0 17.05 14.371 17.5 26 5.5 12.722 4.74 23.898 8 34.5 3.84 12.485 7 27.164 7 40.5 0 6.813 3.54 13.422 5 20 1.06 4.759 2.2 9.657 2.5 14.722.26 4.364 1 7.159 1 11.778v.124c0 2.405 0 4.724 1.5 6.654.68.877-2.61 2.851-5.78 0-7.2-6.485-4.59-1.865-11.72-8.278-1.84-1.66-11.16-12.159-13-14-2-2.003-6.95-7.543-9.5-9-4.7-2.684-9.11 1.755-15 3.5-6.23 1.845-14.38 2.781-20.5 5.5-9.99 4.439-20.04 4.964-30 10-8.62 4.362-17.7 4.652-26.5 8.5-4.16 1.819-11.58 3.432-16.13 4.42l-.37.08c-5.22 1.135-11.85 4.802-17 5-5.577.215-8.515 3.992-14 5-8.614 1.582-15.704 4.956-24.5 5.444-9.853.548-19.114 7.556-29 7.556-3.78 0-9.896 3.099-13.5 4-10.58 2.645-18.393 5.327-29.5 6-10.582.641-20.197 5.627-30.5 7.5-4.406.801-10.668 3.037-15 4-8.032 1.785-14.746 4.5-23 4.5-6.299 0-12.589.965-18.5 3.278-9.235 3.614-17.432 2.971-27 5.222-4.847 1.14-8.209 1.58-13 3-4.925 1.459-9.961 3.47-15 4-8.819.928-17.147 2.5-26 2.5-7.593 0-18.907-2.5-26.5-2.5-6.869 0-12.694-1.197-19-4-4.157-1.847-8.896-2.093-11.5-6-1.691-2.537-7.065-5.565-9.5-8-2.237-2.237-3.436-5.685-5-8.5-2.627-4.728-11.008-17.482-8.5-23-1-5.5.592-12.839 2-19 1.562-6.836 4.094-10.057 8.056-16 1.949-2.925 2.586-7.142 4.944-9.5 1.753-1.753 5.73-4.457 7.85-5.898L650 666c4.474-3.043 5.947-7.02 9.5-11 1.774-1.987 5.92-4.853 8.5-6 4.487-1.994 7.411-7.228 11.5-9.5 4.135-2.297 8.425-3.219 12-6 4.819-3.748 12.786-5.455 19.722-6.94Z" fill="#FF0D0D"/><path d="M121 912.5c-6.404-12.096-2.5-21-2.5-37 7 0 9 4.5 16 4.5 6.368 0 13.216 4.5 18.5 4.5 13.228 0 18.534 14.104 31 18 9.487 2.965 14.247 10.722 23.556 13.944 9.962 3.449 62.31 12.377 71.944 17.056 13.5 0 12.5 0 42 3 23.519 0 95.981 5 119.5 5 18.964-1.223 38.178.118 57 2 38.654 3.865 76.658 1.774 114.5 4 52.639 3.096 106.727.5 159.5.5 51.5-2.5 103.833-2.5 155.5-2.5 18.333 0 37.667-2 56-2 20.73 0 43.32 3.624 63-2 10.4-2.972 21.24.5 32.5.5 14.82 0 26.07-2.792 40-5.889 6.38-1.417 32.84-11.379 38.56-5.667 1.73 1.73-5.27 14.983-6.06 17.556-2.19 7.114-10.13 16-18 16-18.93 0-24 7.5-54.5 5-13 .5-13.44 2.889-21.5 2.889-12.83 0-24.55-2.655-36.5 0-7.57 1.682-14.3 1.555-22 1.555-11.952 0-26.95 2.126-38.556 2.556-8.783.325-17.651 0-26.444 0H796c-34.37 0-67.741 2-102.111 2-57.465 0-115.833-4.5-173.389-4.5H426c-37.274 0-67.045-6-104.5-6-25.136 0-60-5.598-71.5-9.5-14.19-4.815-32.878-1.785-46-8-8.714-4.127-17.746-2.856-27-5.5-10.549-3.014-10.5-2.5-33.5-6.5-13.5-3-19.944-20.671-22.5-25.5Z" fill="#FF0606"/></svg>